<svg width="31" height="30" viewBox="0 0 31 30" fill="none" xmlns="http://www.w3.org/2000/svg">
<path d="M18.0001 1.36806e-06C20.745 -0.00130883 23.4075 0.938501 25.5433 2.66269C27.6792 4.38688 29.1594 6.79121 29.7371 9.4747C30.3147 12.1582 29.9549 14.9586 28.7176 17.4089C27.4804 19.8592 25.4404 21.8113 22.9381 22.9395C22.1382 24.7079 20.9213 26.2558 19.3918 27.4506C17.8624 28.6455 16.0659 29.4514 14.1565 29.7995C12.2471 30.1476 10.2818 30.0273 8.4291 29.449C6.5764 28.8707 4.89161 27.8517 3.51922 26.4793C2.14683 25.1069 1.1278 23.4222 0.549526 21.5695C-0.0287514 19.7168 -0.149017 17.7514 0.199042 15.842C0.547102 13.9327 1.3531 12.1362 2.54791 10.6067C3.74272 9.07722 5.29069 7.86037 7.05905 7.0605C8.01027 4.95583 9.54844 3.17025 11.4891 1.91791C13.4297 0.665571 15.6904 -0.000355597 18.0001 1.36806e-06ZM18.0001 3C16.7291 2.99851 15.4723 3.26691 14.3128 3.78744C13.1533 4.30797 12.1175 5.06877 11.2741 6.0195C12.9695 5.91658 14.6674 6.17474 16.2556 6.77692C17.8438 7.3791 19.286 8.31157 20.487 9.51267C21.6879 10.7138 22.6202 12.1561 23.2222 13.7444C23.8242 15.3327 24.0822 17.0306 23.9791 18.726C25.3429 17.5134 26.3059 15.9149 26.7403 14.1425C27.1747 12.37 27.0601 10.5074 26.4115 8.80158C25.763 7.09579 24.6112 5.62746 23.109 4.59132C21.6067 3.55519 19.825 3.00021 18.0001 3Z" fill="#182025"/>
</svg>
