<?xml version="1.0" encoding="UTF-8" standalone="no"?>
<svg
   xmlns:dc="http://purl.org/dc/elements/1.1/"
   xmlns:cc="http://creativecommons.org/ns#"
   xmlns:rdf="http://www.w3.org/1999/02/22-rdf-syntax-ns#"
   xmlns:svg="http://www.w3.org/2000/svg"
   xmlns="http://www.w3.org/2000/svg"
   xmlns:sodipodi="http://sodipodi.sourceforge.net/DTD/sodipodi-0.dtd"
   xmlns:inkscape="http://www.inkscape.org/namespaces/inkscape"
   inkscape:version="1.1-dev (bc69992, 2020-04-15)"
   sodipodi:docname="barbershop.svg"
   viewBox="0 0 64.044281 77.593338"
   height="77.593338"
   width="64.044281"
   id="svg110"
   version="1.1">
  <metadata
     id="metadata116">
    <rdf:RDF>
      <cc:Work
         rdf:about="">
        <dc:format>image/svg+xml</dc:format>
        <dc:type
           rdf:resource="http://purl.org/dc/dcmitype/StillImage" />
        <dc:title></dc:title>
      </cc:Work>
    </rdf:RDF>
  </metadata>
  <defs
     id="defs114" />
  <sodipodi:namedview
     fit-margin-bottom="0"
     fit-margin-right="0"
     fit-margin-left="0"
     fit-margin-top="0"
     inkscape:current-layer="g118"
     inkscape:window-maximized="0"
     inkscape:window-y="26"
     inkscape:window-x="0"
     inkscape:cy="33.690463"
     inkscape:cx="2.7812279"
     inkscape:zoom="5.1472412"
     showgrid="false"
     id="namedview112"
     inkscape:window-height="874"
     inkscape:window-width="1440"
     inkscape:pageshadow="2"
     inkscape:pageopacity="0"
     guidetolerance="10"
     gridtolerance="10"
     objecttolerance="10"
     borderopacity="1"
     bordercolor="#666666"
     pagecolor="#ffffff" />
  <g
     transform="translate(-10.666667,-6.4066642)"
     id="g118"
     inkscape:label="Image"
     inkscape:groupmode="layer">
    <path
       id="path138"
       d="M 17.333334,81.858563 V 79.717122 L 14,77.095122 l -3.333333,-2.622 v -5.696577 -5.696576 l 2.438321,-2.20665 2.43832,-2.206651 h 3.561681 3.561678 l -0.01551,-10.333333 -0.01551,-10.333334 2.238994,-15 2.238997,-15.0000008 h 3.553024 3.553024 l 2.238996,15.0000008 2.238995,15 -0.01551,6.24802 -0.01551,6.248022 -5.333334,2.9975 -5.333333,2.997501 v 8.881162 8.881163 l -2.666667,2.4133 -2.666667,2.4133 v 2.460018 2.460016 H 19.99999 17.333323 Z m 4.359145,-11.525227 0.581368,-1.666667 -0.612908,-1.666667 -0.612909,-1.666667 h -1.746236 -1.746237 l -0.581368,1.666667 -0.581368,1.666667 0.612908,1.666667 0.612909,1.666666 h 1.746236 1.746237 z M 32.000001,44.000001 v -1.333333 h -1.333333 -1.333334 v 1.333333 1.333334 h 1.333334 1.333333 z m 3.539984,32.228347 -2.206651,-2.43832 v -9.419029 -9.419027 l 2.10905,-0.809318 2.109051,-0.809319 h 0.557616 0.557617 v 3.333333 3.333334 h 3.793349 3.793351 l 2.20665,2.438321 2.20665,2.43832 v 4.688363 4.688363 l -2.438321,2.206649 -2.43832,2.206651 h -4.021696 -4.021696 z m 8.460016,-6.895012 v -2.666667 h -2 -2 v 2.666667 2.666666 h 2 2 z m 16.449258,5.914233 -0.800384,-2.085767 0.93131,-6.914233 0.93131,-6.914234 0.737918,-5.550693 0.737918,-5.550692 -7.493665,-0.936273 -7.493664,-0.936272 v -2.513034 -2.513036 h 9.333333 9.333334 V 26.666668 12 H 57.333335 48.000002 V 10.11376 8.2275197 l 9.715616,-0.9104277 9.715616,-0.9104278 3.284384,0.4633347 3.284384,0.4633347 0.355471,35.0000014 0.355472,35.000001 H 67.980294 61.249642 Z M 48.000002,36.666668 v -2 h 8 8 v 2 2 h -8 -8 z m 0,-6.666667 v -2 h 8 8 v 2 2 h -8 -8 z m 0,-6.666667 v -2 h 8 8 v 2 2 h -8 -8 z m 0,-6.666667 v -2 h 8 8 v 2 2 h -8 -8 z"
       style="fill:#000000;stroke-width:1" />
  </g>
</svg>
